<?xml version="1.0" standalone="no"?>
<!DOCTYPE svg PUBLIC "-//W3C//DTD SVG 20010904//EN"
 "http://www.w3.org/TR/2001/REC-SVG-20010904/DTD/svg10.dtd">
<svg version="1.0" xmlns="http://www.w3.org/2000/svg"
 width="512.000000pt" height="512.000000pt" viewBox="0 0 512.000000 512.000000"
 preserveAspectRatio="xMidYMid meet">

<g transform="translate(0.000000,512.000000) scale(0.100000,-0.100000)"
fill="#000000" stroke="none">
<path d="M707 5110 c-82 -15 -182 -48 -210 -71 -38 -29 -37 -80 0 -109 31 -24
39 -23 148 10 269 81 576 -20 742 -243 98 -132 151 -300 140 -446 -18 -248
-213 -568 -555 -908 -67 -68 -127 -123 -133 -123 -5 0 -69 60 -142 133 -267
267 -443 522 -519 752 -19 58 -23 90 -22 185 1 166 38 268 158 440 24 34 28
46 20 67 -14 39 -55 66 -88 57 -60 -15 -173 -201 -218 -359 -18 -65 -22 -104
-22 -210 0 -112 4 -142 28 -220 76 -249 266 -526 567 -827 236 -235 241 -235
467 -10 171 170 285 303 384 452 66 98 151 256 176 329 l11 31 1268 0 c1407 0
1332 3 1465 -67 260 -136 368 -460 244 -728 -63 -136 -170 -236 -312 -292
l-69 -28 -347 -3 -346 -3 -5 313 c-3 229 -8 323 -17 352 -19 53 -91 130 -148
158 l-47 23 -765 0 -765 0 -47 -23 c-57 -28 -129 -105 -148 -158 -9 -29 -14
-123 -17 -351 l-5 -313 -291 0 c-398 0 -502 -14 -677 -89 -323 -139 -554 -445
-601 -797 -56 -421 168 -841 551 -1034 36 -18 97 -44 135 -57 157 -53 147 -53
1535 -53 l1286 0 34 -72 c87 -183 263 -412 491 -640 238 -237 241 -237 478 0
301 301 492 580 568 829 37 121 39 308 5 428 -90 314 -331 541 -646 606 -434
90 -872 -187 -978 -617 l-21 -84 -614 0 -614 0 -24 -25 c-32 -31 -32 -69 0
-100 l24 -25 609 0 609 0 7 -43 c4 -23 9 -57 12 -74 l6 -33 -1255 0 c-1077 0
-1267 2 -1342 15 -397 70 -689 400 -712 805 -22 409 246 771 652 881 73 20
110 23 428 27 l347 4 0 -76 0 -76 -289 0 c-312 0 -408 -8 -514 -45 -104 -36
-173 -81 -267 -175 -219 -218 -271 -529 -135 -805 92 -188 232 -307 440 -376
69 -23 78 -23 587 -27 l518 -3 25 25 c32 32 32 70 0 101 l-24 25 -478 0 c-528
0 -564 4 -683 62 -78 38 -202 157 -243 235 -35 66 -67 191 -67 262 1 247 161
464 400 543 60 20 92 22 396 26 l331 4 6 -116 c8 -142 29 -198 97 -259 l47
-42 5 -126 c5 -99 10 -134 26 -165 72 -139 242 -171 355 -65 53 48 68 93 74
217 l6 114 367 0 367 0 6 -114 c7 -152 38 -211 137 -261 73 -38 176 -19 243
44 55 50 69 93 75 230 l5 126 47 42 c68 61 89 118 97 258 l6 114 371 3 c349 4
376 5 451 27 170 48 312 130 443 256 138 131 230 287 280 475 35 132 37 352 4
483 -49 195 -130 336 -276 482 -114 113 -214 178 -355 231 -175 66 -130 64
-1537 64 -1013 0 -1274 3 -1274 13 0 6 -15 48 -33 92 -97 240 -304 423 -557
495 -85 24 -274 35 -353 20z m3618 -794 c306 -91 525 -308 610 -603 138 -475
-165 -975 -655 -1079 -48 -10 -154 -14 -402 -14 l-338 0 0 75 0 75 333 0 c297
0 342 2 409 19 236 61 428 242 505 476 22 68 26 99 27 205 1 143 -14 213 -70
326 -92 186 -261 321 -468 374 -77 20 -107 20 -1336 20 -691 0 -1259 2 -1261
4 -2 2 -3 36 -1 75 l4 72 1291 -4 c1210 -2 1296 -4 1352 -21z m-1033 -706 c20
-6 48 -24 62 -41 l26 -31 0 -304 0 -304 -820 0 -820 0 0 304 0 304 26 31 c14
17 40 35 57 40 45 13 1422 14 1469 1z m88 -1096 l0 -266 -34 -34 -34 -34 -752
0 -752 0 -34 34 -34 34 0 266 0 266 820 0 820 0 0 -266z m-1350 -587 c0 -116
-12 -140 -70 -140 -58 0 -70 24 -70 140 l0 103 70 0 70 0 0 -103z m1200 0 c0
-116 -12 -140 -70 -140 -58 0 -70 24 -70 140 l0 103 70 0 70 0 0 -103z m1255
-51 c85 -27 171 -74 243 -133 139 -114 242 -334 242 -518 0 -169 -93 -382
-271 -619 -92 -122 -272 -321 -357 -394 l-62 -54 -62 54 c-34 29 -111 107
-171 173 -322 353 -471 642 -454 879 22 310 240 560 552 632 90 21 241 12 340
-20z"/>
<path d="M1981 2524 c-42 -54 -13 -118 54 -118 67 0 96 64 54 118 -15 19 -30
26 -54 26 -24 0 -39 -7 -54 -26z"/>
<path d="M2281 2524 c-26 -33 -27 -65 -2 -95 l19 -24 262 0 262 0 19 24 c25
30 24 62 -2 95 l-20 26 -259 0 -259 0 -20 -26z"/>
<path d="M3031 2524 c-42 -54 -13 -118 54 -118 67 0 96 64 54 118 -15 19 -30
26 -54 26 -24 0 -39 -7 -54 -26z"/>
<path d="M4191 1670 c-81 -17 -185 -74 -242 -133 -180 -182 -187 -457 -15
-644 62 -69 118 -105 203 -134 54 -18 82 -21 167 -17 95 3 109 6 178 41 86 42
180 133 217 211 150 308 -54 660 -392 681 -40 2 -92 0 -116 -5z m223 -174
c148 -68 223 -248 167 -397 -86 -226 -381 -283 -539 -104 -113 129 -109 308
12 433 95 100 235 126 360 68z"/>
<path d="M740 4727 c-171 -39 -311 -174 -355 -342 -40 -157 0 -314 112 -436
93 -100 205 -149 343 -149 138 0 250 49 342 149 271 292 82 760 -317 786 -38
3 -95 -1 -125 -8z m234 -171 c62 -28 119 -84 154 -151 36 -67 38 -195 6 -266
-98 -212 -380 -256 -532 -84 -160 182 -71 465 165 525 56 14 149 3 207 -24z"/>
</g>
</svg>
