<?xml version="1.0" standalone="no"?>
<!DOCTYPE svg PUBLIC "-//W3C//DTD SVG 20010904//EN"
 "http://www.w3.org/TR/2001/REC-SVG-20010904/DTD/svg10.dtd">
<svg version="1.0" xmlns="http://www.w3.org/2000/svg"
 width="512.000000pt" height="512.000000pt" viewBox="0 0 512.000000 512.000000"
 preserveAspectRatio="xMidYMid meet">

<g transform="translate(0.000000,512.000000) scale(0.100000,-0.100000)"
fill="#000000" stroke="none">
<path  d="M3377 5098 c-14 -13 -37 -57 -53 -98 -52 -142 -95 -185 -242 -240
-87 -34 -112 -56 -112 -102 0 -40 27 -61 125 -99 128 -48 174 -94 228 -228 36
-89 47 -106 72 -117 24 -10 37 -10 62 1 26 11 36 26 67 108 57 146 103 189
264 247 67 25 92 49 92 90 0 44 -27 67 -113 100 -148 57 -192 100 -242 243
-40 112 -93 146 -148 95z m175 -408 l38 -28 -42 -28 c-23 -16 -58 -51 -79 -77
-21 -26 -41 -48 -44 -48 -4 0 -20 18 -36 40 -16 22 -51 57 -78 77 l-50 37 38
28 c21 15 58 50 82 78 l44 50 44 -51 c25 -28 62 -63 83 -78z"/>
<path d="M4688 5010 c-16 -12 -35 -47 -49 -87 -30 -86 -74 -131 -157 -162 -86
-32 -112 -55 -112 -96 0 -46 25 -70 100 -96 90 -33 133 -74 165 -162 31 -82
54 -107 99 -107 42 0 67 28 97 108 31 82 74 124 161 158 144 57 147 136 7 189
-99 38 -130 69 -169 165 -44 109 -86 135 -142 90z m87 -388 l-41 -43 -43 42
-42 42 41 42 42 43 42 -42 43 -41 -42 -43z"/>
<path d="M4189 4520 c-9 -5 -31 -46 -49 -90 -39 -98 -79 -136 -179 -174 -75
-29 -91 -46 -91 -94 0 -37 28 -61 113 -97 86 -35 118 -67 152 -152 32 -82 59
-113 96 -113 40 0 73 36 100 109 30 86 76 131 163 162 144 50 143 140 -1 190
-87 31 -131 74 -162 159 -13 36 -33 75 -44 88 -22 23 -69 29 -98 12z m88 -397
l-42 -42 -42 41 -43 42 42 43 42 43 43 -42 43 -42 -43 -43z"/>
<path d="M2190 3940 c-358 -16 -856 -73 -963 -109 -84 -29 -166 -76 -226 -128
-91 -79 -139 -161 -252 -427 -57 -135 -107 -246 -110 -246 -4 0 -12 14 -19 30
-16 39 -61 77 -108 90 -30 9 -66 7 -192 -15 -196 -33 -211 -38 -254 -85 -78
-87 -75 -224 8 -306 38 -38 49 -43 161 -68 66 -15 133 -31 148 -34 l28 -7 -72
-110 c-88 -135 -132 -228 -161 -337 -21 -80 -22 -105 -25 -634 -5 -616 -3
-639 62 -770 62 -128 193 -227 355 -271 61 -17 181 -18 1990 -18 1816 0 1929
1 1990 18 222 61 362 204 406 417 13 63 15 157 11 630 -3 540 -4 557 -26 635
-31 108 -75 199 -160 330 l-72 110 28 6 c15 4 82 19 148 34 112 26 123 30 161
69 83 82 86 219 8 306 -43 47 -58 52 -254 85 -126 22 -162 24 -192 15 -47 -13
-92 -51 -108 -90 -7 -16 -15 -30 -19 -30 -3 0 -53 111 -110 246 -141 331 -208
423 -371 508 -114 59 -181 74 -497 111 -363 42 -938 62 -1313 45z m920 -170
c184 -13 396 -35 575 -61 112 -16 155 -27 212 -54 76 -35 152 -99 197 -164 15
-21 87 -178 159 -347 l133 -309 161 -245 c180 -275 203 -317 235 -422 20 -69
22 -95 26 -470 l3 -398 -2164 0 c-2100 0 -2165 -1 -2188 -19 -31 -25 -32 -83
-1 -114 l23 -22 2164 -3 2165 -2 0 -65 c0 -229 -124 -380 -340 -414 -43 -7
-688 -11 -1920 -11 -1555 0 -1866 3 -1921 14 -170 36 -278 141 -309 301 -8 43
-10 216 -8 595 5 679 -10 615 236 993 l136 207 1757 0 1758 0 26 23 c35 29 37
78 5 112 l-23 25 -1714 0 c-1037 0 -1713 4 -1713 9 0 11 194 469 221 523 10
20 44 64 75 97 78 84 181 134 319 155 241 36 593 68 895 80 138 6 663 -4 820
-14z m-2633 -782 c14 -18 63 -137 63 -151 0 -7 -9 -23 -19 -36 l-18 -23 -157
36 c-87 20 -162 39 -167 42 -14 8 -11 84 4 89 9 4 209 42 278 54 4 1 11 -5 16
-11z m4338 -18 c66 -12 123 -26 127 -33 10 -16 10 -59 0 -74 -5 -7 -80 -29
-167 -48 l-159 -36 -18 23 c-23 30 -23 36 9 110 34 80 41 89 67 83 11 -2 75
-14 141 -25z"/>
<path d="M610 2269 c-36 -15 -69 -48 -93 -94 -18 -33 -21 -58 -22 -140 0 -90
3 -106 28 -158 27 -54 78 -101 130 -120 27 -10 716 -107 759 -107 49 0 82 28
82 71 0 51 -182 369 -263 462 -40 45 -64 52 -251 71 -213 22 -341 27 -370 15z
m300 -169 c74 -6 150 -13 169 -17 37 -6 62 -36 143 -173 38 -64 44 -80 30 -80
-9 0 -138 18 -286 40 -215 31 -273 42 -288 57 -21 22 -34 103 -24 158 l7 36
57 -6 c31 -3 118 -10 192 -15z"/>
<path d="M4285 2269 c-158 -12 -331 -36 -355 -49 -30 -16 -91 -98 -163 -218
-108 -180 -149 -264 -142 -292 11 -42 34 -60 79 -60 58 0 735 96 769 109 90
34 147 125 155 245 8 126 -38 230 -115 262 -35 15 -62 15 -228 3z m175 -168
c27 -52 1 -174 -42 -190 -28 -10 -558 -85 -563 -79 -5 4 119 204 142 230 9 10
30 20 47 23 24 4 226 22 388 34 10 0 22 -8 28 -18z"/>
<path d="M1465 2165 c-14 -13 -25 -35 -25 -49 0 -31 212 -482 239 -510 20 -19
48 -22 455 -45 l433 -25 427 25 c426 24 426 24 450 49 31 32 236 471 236 505
0 15 -11 37 -26 52 -25 25 -28 26 -112 19 -890 -69 -1042 -71 -1747 -16 -313
25 -301 25 -330 -5z m510 -171 c437 -33 794 -30 1309 12 99 7 181 13 182 11 3
-3 -119 -264 -127 -271 -3 -3 -173 -15 -379 -27 -372 -22 -378 -22 -695 -5
-176 10 -357 20 -403 23 l-82 6 -19 41 c-10 23 -40 85 -65 139 l-46 99 62 -7
c35 -3 153 -12 263 -21z"/>
<path d="M174 575 l-25 -25 3 -213 c3 -213 3 -214 30 -254 16 -24 44 -49 70
-62 41 -20 60 -21 286 -21 196 0 250 3 280 15 90 38 121 99 122 236 0 82 -3
100 -21 123 -16 20 -29 26 -58 26 -61 0 -75 -24 -81 -138 l-5 -97 -230 0 -230
0 -6 195 c-3 107 -6 196 -7 197 -46 50 -90 56 -128 18z"/>
<path d="M4836 579 l-26 -20 0 -188 c0 -132 -4 -191 -12 -199 -9 -9 -74 -12
-230 -12 -254 0 -238 -8 -238 119 0 93 -17 121 -71 121 -65 0 -89 -38 -89
-144 1 -127 37 -202 114 -237 36 -16 68 -19 286 -19 273 0 299 6 353 69 40 48
47 90 47 288 0 181 0 182 -26 212 -31 37 -69 41 -108 10z"/>
</g>
</svg>
