<?xml version="1.0" standalone="no"?>
<!DOCTYPE svg PUBLIC "-//W3C//DTD SVG 20010904//EN"
 "http://www.w3.org/TR/2001/REC-SVG-20010904/DTD/svg10.dtd">
<svg version="1.0" xmlns="http://www.w3.org/2000/svg"
 width="512.000000pt" height="512.000000pt" viewBox="0 0 512.000000 512.000000"
 preserveAspectRatio="xMidYMid meet">

<g transform="translate(0.000000,512.000000) scale(0.100000,-0.100000)"
fill="#000000" stroke="none">
<path d="M4795 4589 c-121 -77 -226 -147 -232 -156 -19 -25 -16 -70 7 -93 40
-40 69 -29 297 117 118 75 223 148 234 161 24 32 24 53 -2 86 -38 49 -64 40
-304 -115z"/>
<path d="M21 4484 c-28 -36 -26 -65 6 -96 16 -14 280 -170 588 -348 308 -177
561 -323 563 -325 3 -2 -966 -1684 -978 -1698 -4 -5 -32 4 -63 19 -65 32 -101
27 -126 -18 -32 -56 -15 -72 214 -206 116 -67 221 -125 233 -128 32 -9 69 21
107 84 l31 50 78 -41 c64 -35 77 -45 72 -62 -2 -11 -10 -40 -16 -65 -24 -96
13 -212 91 -285 74 -69 126 -89 232 -89 l87 1 0 -31 c0 -49 52 -148 100 -189
67 -57 139 -80 233 -75 l77 5 0 -27 c0 -88 88 -208 182 -251 43 -19 69 -24
141 -23 84 0 87 0 87 -23 0 -34 34 -116 65 -157 33 -44 106 -93 158 -107 57
-15 145 -13 196 6 58 20 263 168 311 223 l37 43 154 -84 c204 -111 231 -121
321 -115 159 10 278 125 294 283 l6 60 62 0 c154 1 286 127 303 290 l6 53 71
4 c159 11 279 128 293 287 l5 56 63 1 c79 1 179 46 225 102 80 98 97 200 55
338 -5 16 5 28 53 62 33 23 64 42 69 41 4 0 27 -25 51 -55 64 -81 80 -78 231
42 79 62 123 104 127 120 13 53 -37 104 -88 90 -13 -3 -57 -33 -98 -66 -41
-33 -77 -60 -80 -59 -7 1 -1192 1561 -1188 1563 2 2 159 103 351 225 255 164
349 229 353 246 10 38 0 67 -29 89 -23 17 -32 18 -55 10 -27 -10 -707 -444
-769 -491 -53 -39 -47 -74 33 -180 37 -48 68 -93 71 -99 2 -7 -16 -28 -42 -47
l-46 -35 -192 64 -191 64 -466 0 c-394 0 -469 -2 -487 -15 -15 -10 -28 -44
-48 -125 -23 -93 -30 -110 -44 -104 -9 3 -44 16 -77 28 l-61 22 -178 -20 -178
-20 -54 30 c-30 16 -57 32 -59 36 -3 4 20 50 51 102 68 117 75 144 43 178 -12
14 -352 215 -754 447 -528 304 -740 421 -762 421 -21 0 -37 -8 -51 -26z m1401
-925 c-3 -10 -968 -1688 -977 -1697 -4 -4 -115 62 -115 70 0 3 221 389 491
856 l490 851 57 -34 c31 -19 56 -40 54 -46z m1892 -243 c188 -60 224 -70 252
-67 6 0 41 24 77 51 36 28 70 50 74 50 8 -1 884 -1148 890 -1167 2 -6 -26 -32
-63 -58 l-66 -48 -37 21 c-20 11 -376 206 -791 432 -415 227 -756 413 -757
414 -2 1 11 24 28 50 43 69 47 99 16 130 -33 33 -76 34 -104 4 -12 -13 -56
-79 -100 -148 l-78 -125 -5 -365 c-5 -344 -6 -368 -26 -410 -44 -94 -122 -145
-224 -145 -103 0 -180 50 -224 145 -20 42 -21 65 -24 375 l-3 330 71 285 c39
157 73 291 75 298 3 9 95 12 411 12 l406 0 202 -64z m-1813 -133 l75 -42 184
21 c179 21 184 21 237 3 90 -31 87 -19 42 -199 l-39 -160 0 -305 c0 -338 8
-421 46 -499 131 -268 514 -294 679 -46 66 99 68 111 72 502 4 324 6 353 21
350 10 -3 366 -195 792 -427 524 -285 785 -433 807 -455 57 -61 56 -150 -3
-215 -41 -46 -101 -66 -155 -51 -19 6 -226 114 -460 241 -233 127 -438 237
-454 244 -41 18 -91 -2 -101 -41 -16 -62 -10 -66 351 -263 483 -264 449 -243
474 -294 26 -53 26 -89 2 -143 -28 -62 -73 -89 -146 -89 -59 0 -65 3 -439 208
-209 115 -391 211 -405 213 -18 4 -35 -2 -54 -16 -38 -30 -37 -80 1 -112 16
-12 158 -93 317 -178 158 -85 302 -169 320 -185 39 -36 60 -99 51 -150 -16
-82 -119 -149 -198 -127 -19 5 -180 89 -359 186 -178 97 -334 176 -348 176
-57 0 -91 -74 -53 -118 9 -11 131 -82 270 -158 150 -81 262 -148 277 -166 93
-111 20 -268 -126 -268 -35 0 -75 18 -231 102 -170 92 -188 105 -188 128 0
124 -121 261 -252 285 l-35 7 -5 73 c-6 94 -41 168 -109 229 -47 43 -119 76
-164 76 -20 0 -22 5 -22 73 0 57 -5 83 -27 129 -45 95 -158 178 -243 178 -22
0 -23 3 -23 73 0 62 -5 83 -31 135 -76 153 -250 219 -403 152 -22 -9 -164
-106 -314 -214 l-272 -197 -92 48 c-50 26 -92 51 -92 54 -1 5 532 934 687
1197 27 46 52 82 55 80 4 -2 41 -22 83 -45z m150 -1069 c43 -22 72 -71 77
-129 5 -58 -10 -95 -55 -136 -49 -47 -545 -401 -582 -416 -88 -37 -201 31
-216 130 -6 38 -3 55 16 94 22 42 54 68 313 255 158 114 302 212 320 217 36
11 89 5 127 -15z m308 -392 c64 -47 84 -145 45 -213 -20 -33 -393 -315 -476
-359 -75 -40 -170 -18 -215 51 -22 33 -25 47 -21 96 2 33 12 70 22 86 17 25
406 316 466 347 60 32 130 29 179 -8z m271 -367 c41 -21 81 -78 87 -123 7 -53
-10 -102 -50 -139 -66 -63 -339 -253 -373 -259 -73 -13 -146 22 -179 87 -19
36 -19 112 -1 147 8 15 27 39 43 53 29 27 294 218 328 237 29 16 111 15 145
-3z m308 -392 c46 -34 72 -81 72 -130 0 -74 -24 -108 -127 -185 -136 -100
-151 -108 -207 -108 -161 0 -226 193 -98 294 49 39 170 124 198 140 39 22 126
16 162 -11z"/>
</g>
</svg>
