<?xml version="1.0" standalone="no"?>
<!DOCTYPE svg PUBLIC "-//W3C//DTD SVG 20010904//EN"
 "http://www.w3.org/TR/2001/REC-SVG-20010904/DTD/svg10.dtd">
<svg version="1.0" xmlns="http://www.w3.org/2000/svg"
 width="512.000000pt" height="512.000000pt" viewBox="0 0 512.000000 512.000000"
 preserveAspectRatio="xMidYMid meet">

<g transform="translate(0.000000,512.000000) scale(0.100000,-0.100000)"
fill="#000000" stroke="none">
<path d="M952 5103 c-43 -21 -79 -64 -92 -111 -14 -53 -14 -1573 1 -1627 14
-50 64 -100 114 -114 24 -6 130 -11 258 -11 l217 0 0 -84 0 -83 -47 -18 c-56
-21 -118 -76 -142 -124 -10 -20 -63 -170 -117 -333 l-99 -297 -25 23 c-53 50
-88 60 -220 64 -149 5 -209 -7 -271 -52 -166 -122 -112 -397 88 -447 l44 -12
-53 -28 c-62 -34 -118 -92 -150 -157 -23 -47 -23 -47 -26 -552 -2 -448 -1
-510 14 -548 21 -56 56 -96 109 -128 l43 -25 4 -132 c3 -122 5 -135 30 -178
15 -25 43 -58 63 -73 68 -52 102 -58 347 -54 195 3 228 5 261 22 53 26 96 72
123 131 21 43 24 66 24 163 l0 112 1110 0 1110 0 0 -112 c0 -98 3 -120 24
-163 27 -58 65 -99 121 -129 37 -19 57 -21 263 -24 248 -4 281 2 352 58 21 17
50 54 64 82 24 47 26 63 26 174 l0 122 44 26 c54 32 89 72 110 128 15 38 16
100 14 548 -3 505 -3 505 -26 552 -32 65 -88 123 -150 157 l-53 28 44 12 c200
50 254 325 88 447 -62 45 -122 57 -271 52 -132 -4 -167 -14 -220 -64 l-25 -23
-99 297 c-54 163 -107 313 -117 333 -24 48 -86 103 -142 124 l-47 18 0 83 0
84 218 0 c127 0 233 5 257 11 51 14 100 65 114 117 8 29 11 275 9 834 -3 886
2 827 -75 885 l-36 28 -1586 2 c-1445 2 -1589 1 -1619 -14z m3146 -920 l-3
-768 -1535 0 -1535 0 -3 768 -2 767 1540 0 1540 0 -2 -767z m-2138 -1028 l0
-85 -170 0 -170 0 0 85 0 85 170 0 170 0 0 -85z m1030 0 l0 -85 -430 0 -430 0
0 85 0 85 430 0 430 0 0 -85z m510 0 l0 -85 -170 0 -170 0 0 85 0 85 170 0
170 0 0 -85z m185 -277 c20 -19 52 -103 159 -425 l134 -403 -1418 0 -1418 0
134 403 c107 322 139 406 159 425 l26 22 1099 0 1099 0 26 -22z m-2774 -687
c25 -26 29 -37 29 -85 l0 -56 -145 0 c-142 0 -147 1 -170 25 -27 27 -33 79
-12 106 24 31 53 38 160 39 107 0 109 0 138 -29z m3562 17 c53 -28 64 -92 22
-133 -23 -24 -28 -25 -170 -25 l-145 0 0 56 c0 48 4 59 29 85 29 28 32 29 136
29 62 0 115 -5 128 -12z m-198 -431 c181 -93 202 -106 222 -142 23 -40 23 -42
23 -513 l0 -473 -25 -24 -24 -25 -445 0 -444 0 -4 118 c-4 136 -17 165 -91
201 -43 21 -52 21 -927 21 -875 0 -884 0 -927 -21 -74 -36 -87 -65 -91 -201
l-4 -118 -444 0 -445 0 -24 25 -25 24 0 473 c0 471 0 473 23 513 20 36 41 49
222 142 l200 102 1515 0 1515 0 200 -102z m-865 -1092 l0 -85 -850 0 -850 0 0
85 0 85 850 0 850 0 0 -85z m-2130 -356 c0 -98 -1 -101 -29 -130 l-29 -29
-192 0 c-258 0 -259 1 -260 158 l0 102 255 0 255 0 0 -101z m3070 -1 c-1 -157
-2 -158 -260 -158 l-192 0 -29 29 c-28 29 -29 32 -29 130 l0 101 255 0 255 0
0 -102z"/>
<path d="M1310 4582 l-30 -30 0 -372 0 -371 25 -24 c37 -38 88 -37 123 1 21
24 22 34 22 170 0 121 2 144 15 144 9 0 45 -61 95 -161 68 -135 86 -162 111
-173 17 -7 42 -11 55 -8 30 6 64 47 64 78 0 14 -29 83 -65 155 l-66 131 44 41
c55 52 77 94 84 163 8 73 -12 135 -60 190 -65 74 -101 87 -254 92 l-132 4 -31
-30z m287 -176 c30 -36 30 -80 -2 -111 -20 -21 -34 -25 -85 -25 l-60 0 0 86 0
86 62 -4 c51 -4 65 -9 85 -32z"/>
<path d="M2010 4597 c-48 -24 -50 -38 -50 -415 0 -398 1 -402 68 -422 23 -8
102 -10 214 -8 171 3 177 4 202 27 36 34 36 88 0 122 -24 23 -33 24 -170 27
l-145 4 3 81 3 82 107 5 c120 6 135 13 144 71 5 29 1 41 -19 65 -25 28 -28 29
-132 32 l-106 4 3 81 3 82 146 5 c166 6 189 15 189 76 0 86 -23 94 -252 94
-127 0 -191 -4 -208 -13z"/>
<path d="M2695 4598 c-45 -24 -45 -23 -45 -418 l0 -377 23 -21 c25 -23 75 -29
107 -12 31 16 40 67 41 224 l0 151 88 -175 c49 -96 97 -182 107 -192 39 -34
106 -23 129 22 13 24 15 86 15 382 0 381 -2 392 -54 416 -30 15 -60 11 -91
-12 -18 -13 -20 -29 -25 -198 l-5 -183 -98 193 c-76 151 -103 195 -123 202
-32 12 -44 12 -69 -2z"/>
<path d="M3361 4584 c-40 -33 -43 -83 -6 -119 20 -21 34 -25 85 -25 l60 0 0
-314 c0 -312 0 -315 23 -340 34 -38 85 -39 122 -1 l25 24 0 316 0 315 59 0
c71 0 99 19 108 72 5 32 1 41 -25 68 l-30 30 -195 0 -195 0 -31 -26z"/>
<path d="M899 1695 c-52 -28 -58 -105 -11 -141 14 -11 330 -13 1673 -14 l1656
0 20 23 c43 47 35 105 -18 133 -42 21 -3281 20 -3320 -1z"/>
<path d="M901 1361 c-40 -11 -77 -37 -105 -75 -30 -39 -29 -162 1 -228 32 -71
103 -141 176 -173 53 -25 78 -29 182 -33 74 -3 136 0 163 7 54 15 107 62 123
108 29 90 -21 236 -109 313 -68 61 -135 81 -277 86 -66 2 -135 -1 -154 -5z
m300 -194 c34 -22 79 -96 79 -129 0 -16 -10 -18 -87 -18 -49 0 -105 5 -125 10
-48 14 -97 55 -114 97 -27 63 -26 63 100 63 101 0 117 -2 147 -23z"/>
<path d="M3957 1360 c-152 -27 -268 -150 -283 -299 -8 -74 7 -121 51 -160 50
-44 101 -54 240 -49 104 4 129 8 182 33 209 93 275 375 109 462 -36 19 -221
27 -299 13z m223 -185 c0 -31 -28 -81 -59 -108 -43 -35 -89 -47 -193 -47 -78
0 -88 2 -88 18 0 33 45 107 79 129 30 21 46 23 147 23 96 0 114 -2 114 -15z"/>
<path d="M1735 1255 c-17 -16 -25 -35 -25 -60 0 -25 8 -44 25 -60 l24 -25 801
0 801 0 24 25 c17 16 25 35 25 60 0 25 -8 44 -25 60 l-24 25 -801 0 -801 0
-24 -25z"/>
</g>
</svg>
