<?xml version="1.0" standalone="no"?>
<!DOCTYPE svg PUBLIC "-//W3C//DTD SVG 20010904//EN"
 "http://www.w3.org/TR/2001/REC-SVG-20010904/DTD/svg10.dtd">
<svg version="1.0" xmlns="http://www.w3.org/2000/svg"
 width="2133.000000pt" height="2133.000000pt" viewBox="0 0 2133.000000 2133.000000"
 preserveAspectRatio="xMidYMid meet">

<g transform="translate(0.000000,2133.000000) scale(0.100000,-0.100000)"
fill="#000000" stroke="none">
<path d="M9315 21019 c-207 -28 -429 -125 -629 -272 -45 -34 -152 -130 -238
-215 l-157 -154 -118 41 c-141 50 -209 65 -368 82 -680 69 -1284 -279 -1525
-878 -215 -535 -93 -1135 321 -1577 297 -317 964 -730 1731 -1070 420 -186
622 -253 793 -263 180 -10 288 30 399 147 257 273 681 851 941 1285 139 232
187 305 200 305 11 0 109 -151 231 -355 230 -386 659 -969 910 -1235 230 -243
536 -198 1405 210 360 168 721 370 1029 575 380 253 555 422 698 672 143 250
216 510 216 773 0 170 -19 288 -70 439 -121 362 -384 661 -733 836 -199 99
-378 144 -607 152 -228 8 -374 -19 -631 -114 l-81 -31 -112 124 c-162 181
-290 279 -508 388 -232 116 -383 144 -712 132 -197 -7 -289 -23 -413 -72 -197
-78 -359 -179 -517 -325 l-106 -96 -96 93 c-54 51 -130 115 -170 142 -177 120
-409 209 -647 248 -110 19 -346 26 -436 13z m404 -665 c167 -41 317 -148 443
-318 118 -159 158 -279 158 -482 0 -185 -38 -307 -195 -629 -224 -459 -544
-948 -1006 -1537 -15 -20 -18 -19 -175 45 -749 304 -1555 757 -1842 1036 -110
107 -204 276 -243 437 -68 282 51 603 292 786 232 177 458 210 745 108 63 -22
166 -58 230 -81 203 -72 327 -63 474 33 36 23 146 121 245 218 99 96 212 199
250 228 86 64 230 137 310 156 82 20 234 20 314 0z m2246 -8 c150 -42 253
-116 515 -371 102 -99 214 -200 250 -223 147 -96 271 -105 474 -33 64 23 168
59 231 82 256 90 464 73 672 -57 187 -116 320 -301 370 -513 19 -82 13 -268
-11 -356 -24 -86 -106 -249 -167 -329 -199 -261 -970 -711 -1878 -1096 -106
-45 -197 -78 -201 -73 -264 309 -695 950 -934 1390 -222 408 -301 660 -276
881 38 341 304 644 625 712 61 13 262 4 330 -14z"/>
<path d="M8095 16045 c-906 -84 -1341 -146 -1720 -242 -498 -127 -808 -302
-1097 -619 -458 -504 -893 -1257 -1289 -2231 -52 -128 -96 -233 -99 -232 -3 0
-52 61 -110 137 -182 238 -373 411 -571 516 -166 89 -229 100 -631 118 -223 9
-344 9 -540 0 -514 -23 -652 -74 -898 -328 -107 -111 -150 -171 -181 -253 -50
-132 -66 -292 -75 -721 -16 -757 60 -971 407 -1145 146 -74 161 -75 804 -85
696 -11 815 -16 815 -40 0 -19 -198 -276 -676 -880 -433 -546 -677 -901 -795
-1155 -50 -110 -112 -293 -133 -396 -41 -201 -56 -810 -56 -2289 l0 -1106
-153 -22 c-241 -34 -404 -92 -565 -199 -476 -316 -654 -927 -421 -1441 98
-216 302 -424 536 -545 154 -80 276 -112 534 -142 l57 -7 6 -162 c3 -88 10
-345 16 -571 12 -455 22 -600 51 -723 72 -309 410 -696 754 -863 188 -92 309
-107 920 -117 785 -14 933 4 1220 143 219 106 398 261 530 459 204 307 242
505 260 1376 3 146 8 311 11 368 l6 102 5653 0 5653 0 6 -112 c3 -62 10 -282
16 -488 22 -786 51 -940 230 -1215 178 -272 439 -472 745 -569 183 -58 272
-66 715 -66 553 0 939 20 1077 56 379 99 793 511 912 909 32 108 40 214 51
710 5 253 13 528 16 611 l6 152 57 7 c260 30 379 62 539 145 333 172 560 476
617 825 74 454 -123 903 -507 1158 -163 109 -337 169 -585 203 l-131 18 -5
1405 c-5 1340 -10 1570 -37 1836 -16 148 -47 306 -82 409 -97 291 -239 497
-1057 1540 -255 324 -481 623 -481 635 0 5 8 12 17 15 26 11 560 25 908 26
487 0 585 15 750 112 223 131 313 294 344 622 22 225 13 824 -15 986 -35 206
-108 351 -250 500 -213 223 -377 286 -806 310 -223 12 -444 12 -688 0 -333
-17 -390 -29 -551 -112 -200 -104 -393 -276 -579 -520 -58 -76 -107 -137 -110
-137 -3 -1 -38 81 -79 182 -309 761 -518 1170 -866 1697 -415 630 -769 952
-1225 1118 -303 110 -952 229 -1505 276 -569 49 -1007 57 -3370 61 -1782 3
-2176 1 -2300 -10z m3545 -645 c1062 -10 1400 -19 1724 -45 504 -42 669 -86
831 -223 254 -214 786 -1014 1076 -1617 203 -423 422 -991 436 -1133 l6 -54
-44 6 c-24 4 -285 35 -581 71 -978 118 -1298 145 -2093 176 -148 6 -1042 13
-1985 16 -2925 9 -3291 -8 -4986 -222 -236 -30 -433 -55 -436 -55 -6 0 111
340 184 530 231 608 689 1447 1056 1935 284 378 432 481 763 534 330 53 733
71 1854 80 473 4 925 8 1005 9 80 1 615 -3 1190 -8z m3615 -407 c192 -102 410
-343 679 -752 291 -441 577 -1011 808 -1609 82 -212 158 -437 165 -491 l6 -44
-59 7 c-32 4 -126 24 -209 44 l-150 38 -77 229 c-140 415 -179 528 -253 715
-241 614 -540 1193 -900 1745 -113 174 -110 168 -99 164 5 -2 45 -23 89 -46z
m-9105 24 c0 -7 -37 -69 -81 -138 -206 -313 -440 -724 -595 -1044 -204 -423
-321 -712 -503 -1250 l-136 -400 -150 -37 c-82 -20 -176 -40 -209 -44 l-59 -7
7 39 c18 98 132 424 254 729 247 617 555 1173 907 1640 173 228 309 365 473
476 78 52 92 57 92 36z m-3415 -2198 c60 -6 132 -19 160 -30 163 -62 355 -288
505 -594 94 -190 143 -338 144 -432 1 -90 -8 -100 -100 -116 -79 -14 -1861
-14 -1875 0 -10 11 -26 749 -18 866 7 111 26 153 98 220 60 56 101 76 185 87
94 12 779 11 901 -1z m16832 -12 c62 -21 154 -101 185 -161 15 -30 23 -68 27
-137 8 -124 -8 -851 -18 -862 -14 -14 -1796 -14 -1875 0 -93 16 -101 26 -100
121 2 98 36 199 145 418 114 231 195 350 320 468 125 118 190 153 304 165 44
5 278 8 520 7 383 -2 447 -5 492 -19z m-7277 -887 c896 -14 1366 -32 1720 -65
695 -67 1898 -230 2014 -275 64 -24 18 -49 -401 -219 -699 -283 -1265 -551
-1891 -895 -747 -410 -1268 -755 -1571 -1039 l-93 -88 -42 24 c-349 202 -468
241 -721 240 -194 0 -286 -23 -493 -123 l-148 -71 -142 69 c-157 77 -248 105
-392 123 -232 28 -439 -21 -700 -167 -84 -47 -158 -83 -165 -81 -6 3 -70 54
-141 115 -446 377 -1123 801 -1999 1252 -511 263 -940 457 -1574 710 -284 114
-339 139 -315 144 60 12 655 108 814 131 672 97 1694 190 2480 225 227 10
2877 3 3760 -10z m-7990 -772 c380 -113 842 -277 1304 -463 774 -312 1494
-651 1583 -747 l23 -24 -28 -25 c-51 -48 -250 -159 -283 -159 -39 0 -109 35
-265 132 -635 398 -1710 837 -2562 1046 -157 38 -231 61 -228 69 12 30 117
162 149 186 73 56 70 56 307 -15z m13008 33 c20 -10 53 -34 72 -53 40 -39 125
-147 119 -152 -2 -1 -60 -17 -129 -35 -466 -121 -958 -284 -1445 -479 -505
-202 -905 -401 -1304 -646 -156 -96 -199 -104 -276 -53 -28 19 -79 50 -116 70
-36 20 -75 47 -87 60 l-23 24 38 25 c117 77 691 366 1068 538 374 170 1015
411 1615 609 365 119 400 127 468 92z m-13485 -902 c534 -134 881 -244 1316
-418 446 -179 765 -341 1236 -625 l210 -127 6 -897 c5 -927 9 -1010 50 -1216
37 -183 102 -315 233 -468 225 -265 583 -367 1026 -292 248 42 514 152 1030
428 129 69 236 124 238 122 5 -6 -36 -160 -68 -250 -99 -279 -331 -701 -565
-1026 -37 -52 -129 -170 -203 -262 l-135 -168 -3143 0 -3144 0 6 553 c3 303 9
1049 14 1657 l8 1105 62 135 c118 257 334 560 1001 1406 l348 441 136 -23 c74
-13 227 -47 338 -75z m14154 49 c132 -122 540 -617 859 -1043 289 -385 404
-561 494 -755 l62 -135 8 -1100 c5 -605 11 -1351 14 -1657 l6 -558 -3144 0
-3144 0 -145 181 c-395 491 -707 1048 -807 1441 -12 44 -19 82 -17 84 1 2 118
-58 258 -132 607 -324 858 -416 1194 -439 351 -24 649 87 840 312 190 224 246
388 275 813 5 80 10 510 10 955 l0 810 153 97 c225 143 444 266 702 393 618
304 1234 521 1995 704 113 27 223 53 245 59 75 19 92 15 142 -30z m-10147
-1048 c343 -102 883 -377 1048 -534 66 -63 75 -86 80 -213 l5 -113 -184 0
c-310 -1 -498 -14 -555 -39 -62 -28 -118 -82 -152 -146 -34 -68 -42 -189 -17
-266 22 -64 102 -150 168 -179 64 -29 194 -40 457 -40 259 0 502 -14 545 -30
l28 -11 -29 -30 c-111 -118 -629 -447 -959 -609 -282 -139 -479 -196 -649
-188 -120 6 -178 31 -249 108 -91 98 -94 125 -108 892 -14 833 1 1111 71 1253
36 75 58 95 151 146 73 39 75 40 159 35 53 -3 124 -16 190 -36z m6010 4 c89
-42 124 -75 159 -147 71 -144 86 -419 72 -1255 -14 -767 -17 -794 -108 -892
-71 -77 -129 -102 -249 -108 -258 -12 -612 134 -1168 482 -200 126 -378 251
-430 305 -36 37 -37 40 -18 50 30 16 290 31 552 31 262 0 393 11 455 39 59 26
122 86 153 145 24 45 27 62 27 146 0 112 -18 161 -86 235 -70 76 -99 86 -278
96 -86 4 -245 8 -355 9 l-199 0 5 113 c3 76 10 122 20 142 80 150 685 479
1123 609 154 46 227 46 325 0z m-3706 -372 c34 -16 108 -68 166 -116 188 -158
257 -196 361 -196 58 0 77 5 145 40 46 23 127 79 194 135 204 170 235 184 359
166 267 -40 392 -243 322 -522 -50 -198 -135 -325 -380 -570 -247 -245 -477
-441 -588 -499 l-43 -22 -42 21 c-163 79 -718 586 -837 764 -110 164 -164 313
-164 448 0 95 22 162 77 236 107 145 272 189 430 115z m-117 -1954 c35 -38 43
-73 43 -196 0 -328 -117 -1009 -255 -1488 -96 -332 -253 -704 -297 -704 -4 0
-8 8 -8 18 0 92 -106 217 -234 278 -57 27 -104 40 -186 53 -61 9 -110 21 -110
26 1 6 54 85 118 177 321 459 552 935 742 1528 71 221 104 313 123 337 11 15
32 5 64 -29z m1474 -281 c120 -368 204 -579 349 -872 137 -277 238 -448 402
-683 64 -92 117 -171 118 -177 0 -5 -49 -17 -110 -26 -81 -12 -129 -26 -182
-51 -126 -60 -219 -162 -234 -255 -3 -24 -10 -43 -14 -43 -40 0 -192 358 -283
665 -143 481 -267 1190 -267 1525 0 137 10 171 61 214 l33 28 18 -21 c9 -12
58 -149 109 -304z m-787 -839 c14 -51 41 -169 60 -263 20 -93 51 -233 70 -310
22 -91 31 -145 26 -156 -11 -20 -72 -29 -195 -29 -124 0 -184 9 -195 30 -6 11
1 55 20 131 16 63 52 221 80 352 61 283 88 378 101 355 5 -9 20 -58 33 -110z
m-3299 -1438 c471 -11 597 -20 655 -50 73 -37 160 -50 430 -64 304 -16 352
-27 414 -96 45 -50 56 -71 123 -248 72 -190 138 -330 196 -414 54 -78 57 -75
-83 -89 -161 -16 -2479 -21 -5400 -11 l-2785 10 -92 95 c-140 146 -190 268
-181 439 8 149 74 239 283 386 l90 63 2965 -6 c1631 -3 3154 -10 3385 -15z
m3776 -102 c183 -366 391 -709 496 -819 l34 -36 -102 -8 c-134 -9 -1754 -9
-1888 0 l-102 8 34 36 c102 107 312 452 486 800 l71 141 455 0 455 0 61 -122z
m7664 112 c743 -10 1259 -25 1407 -40 105 -11 199 -55 274 -128 88 -87 119
-190 112 -372 -4 -103 -7 -120 -32 -167 -16 -29 -74 -100 -130 -159 l-101
-107 -2795 -9 c-2928 -10 -5229 -5 -5390 11 -140 14 -138 12 -84 86 55 78 123
222 197 417 67 177 78 198 123 248 62 69 110 80 414 96 259 13 358 27 419 59
95 49 1133 71 3491 73 762 1 1705 -3 2095 -8z m-14515 -2072 c0 -645 -24 -851
-117 -1030 -49 -93 -143 -181 -261 -241 -175 -91 -303 -107 -846 -107 -617 0
-751 25 -922 169 -81 68 -156 162 -189 236 -62 139 -75 294 -75 898 l0 487
1205 0 1205 0 0 -412z m15080 -77 c0 -719 -17 -841 -145 -1009 -61 -80 -173
-175 -250 -212 -134 -63 -308 -80 -804 -80 -530 0 -641 14 -819 100 -180 88
-281 208 -332 392 -45 164 -52 265 -57 796 l-5 502 1206 0 1206 0 0 -489z"/>
<path d="M3610 8638 c-89 -12 -249 -67 -361 -124 -324 -161 -574 -408 -738
-728 -104 -202 -114 -266 -109 -684 3 -264 7 -330 22 -392 54 -218 191 -427
434 -661 147 -141 262 -224 417 -299 195 -95 195 -95 600 -95 417 1 424 2 660
119 333 166 579 416 740 750 105 221 115 272 115 621 0 349 -10 400 -115 620
-239 499 -646 800 -1173 870 -124 16 -387 18 -492 3z m495 -673 c233 -65 449
-252 561 -488 112 -236 108 -447 -14 -692 -128 -260 -300 -407 -544 -465 -412
-99 -801 81 -978 453 -115 242 -114 520 5 762 109 224 314 384 562 439 89 20
322 15 408 -9z"/>
<path d="M17260 8649 c-515 -40 -1005 -414 -1232 -940 -75 -176 -81 -209 -86
-526 -5 -374 3 -426 110 -653 111 -237 313 -481 521 -627 168 -119 395 -219
547 -243 85 -13 597 -13 679 1 134 21 320 106 474 216 99 71 297 260 379 362
136 169 216 317 254 471 15 62 19 128 22 389 4 350 -3 428 -48 554 -112 304
-364 599 -682 794 -56 35 -135 77 -177 94 -203 85 -508 128 -761 108z m395
-687 c200 -54 360 -163 484 -331 104 -141 131 -239 131 -486 0 -259 -27 -350
-149 -512 -170 -226 -388 -333 -676 -333 -312 0 -545 120 -701 360 -119 185
-176 396 -155 570 41 321 277 610 586 715 141 48 339 55 480 17z"/>
</g>
</svg>
